# xmcd
#
# Track frame offsets:
#	150
#	14718
#	27873
#	40143
#	51648
#	66222
#	80296
#	94439
#	106926
#	121012
#	134349
#	147971
#	167855
#	182974
#	197886
#	209601
#	223292
#	234902
# Disc length: 3388 seconds
# Revision: 2
# Processed by: cddbd v1.5.2PL0 Copyright (c) Steve Scherf et al.
#
# Submitted via: libkcddb 0.31
#
DISCID=140d3a12
DTITLE=Various Artist - New Orleans Jazz Classics [CD2]
DYEAR=1997
DGENRE=Jazz
TTITLE0=Wild Man Blues - Louis Armstrong and his Hot Seven
TTITLE1=Cannon Ball Blues - Jelly Roll Morton's Red Hot Peppers
TTITLE2=Ballin' the Jack - The Chicago Footwarmers
TTITLE3=Muskrat Ramble - Louis Armstrong and his Hot Five
TTITLE4=As You Like It - Celestin's Original Tuxedo Jazz Orchestra
TTITLE5=1919 Rag - Kid Ory and Creole Jazz Band
TTITLE6=Willie The Weeper - Louis Armstrong and his Hot Seven
TTITLE7=Oriental Man - The Chicago Footwarmers
TTITLE8=My Daddy Rocks Me - Jimmy Noone's Apex Club Orchestra
TTITLE9=Maple Leaf Rag - The New Orleans Feetwarmers
TTITLE10=Struttin' with Some Barbecue - Louis Armstrong and his Hot Five
TTITLE11=Climax Rag - George Lewis and his New Orleans Stompers
TTITLE12=St James Infarmary - Louis Armstrong and his Savoy Ballroom Five
TTITLE13=African Jungle - Jungle Town Stompers
TTITLE14=Clarinet Wobble - Johnny Dodd's Trio
TTITLE15=Weary Blues - Tommy Ladnier and his Orchestra
TTITLE16=Stomp Time Blues - Jasper Taylor and his State Street Boys
TTITLE17=Just A Closer Walk With Thee - George Lewis and his New Orleans Stompers
EXTD=
EXTT0=
EXTT1=
EXTT2=
EXTT3=
EXTT4=
EXTT5=
EXTT6=
EXTT7=
EXTT8=
EXTT9=
EXTT10=
EXTT11=
EXTT12=
EXTT13=
EXTT14=
EXTT15=
EXTT16=
EXTT17=
PLAYORDER=
